<svg width="28" height="27" viewBox="0 0 28 27" fill="none" xmlns="http://www.w3.org/2000/svg">
<path fill-rule="evenodd" clip-rule="evenodd" d="M0 3.5C0 1.567 1.567 0 3.5 0H24.5C26.433 0 28 1.567 28 3.5C28 5.433 26.433 7 24.5 7H3.5C1.567 7 0 5.433 0 3.5ZM0 13.5C0 11.567 1.567 10 3.5 10H24.5C26.433 10 28 11.567 28 13.5C28 15.433 26.433 17 24.5 17H3.5C1.567 17 0 15.433 0 13.5ZM3.5 20C1.567 20 0 21.567 0 23.5C0 25.433 1.567 27 3.5 27H24.5C26.433 27 28 25.433 28 23.5C28 21.567 26.433 20 24.5 20H3.5Z" fill="black"/>
</svg>
