<svg width="48" height="49" viewBox="0 0 48 49" fill="none" xmlns="http://www.w3.org/2000/svg">
<path fill-rule="evenodd" clip-rule="evenodd" d="M0 24.033C0 10.7599 10.7452 0 24 0C37.2548 0 48 10.7599 48 24.033C48 37.306 37.2548 48.0659 24 48.0659C10.7452 48.0659 0 37.306 0 24.033ZM24.0012 11.2154C20.5249 11.2154 20.0886 11.2306 18.7233 11.2928C17.3606 11.3553 16.4305 11.5713 15.6166 11.8883C14.7747 12.2157 14.0606 12.6536 13.3491 13.3664C12.6371 14.0788 12.1997 14.7939 11.8717 15.6367C11.5544 16.452 11.3384 17.3836 11.2771 18.7477C11.216 20.1149 11.2 20.552 11.2 24.0331C11.2 27.5142 11.2155 27.9497 11.2773 29.3169C11.34 30.6815 11.5557 31.6129 11.872 32.4279C12.1992 33.2709 12.6365 33.986 13.3483 34.6985C14.0595 35.4115 14.7736 35.8505 15.615 36.1779C16.4294 36.4948 17.3598 36.7109 18.7222 36.7734C20.0876 36.8356 20.5236 36.8508 23.9996 36.8508C27.4762 36.8508 27.9111 36.8356 29.2765 36.7734C30.6391 36.7109 31.5703 36.4948 32.3848 36.1779C33.2264 35.8505 33.9394 35.4115 34.6506 34.6985C35.3626 33.986 35.8 33.2709 36.128 32.4282C36.4427 31.6129 36.6587 30.6812 36.7227 29.3172C36.784 27.95 36.8 27.5142 36.8 24.0331C36.8 20.552 36.784 20.1151 36.7227 18.7479C36.6587 17.3834 36.4427 16.452 36.128 15.637C35.8 14.7939 35.3626 14.0788 34.6506 13.3664C33.9386 12.6534 33.2266 12.2154 32.384 11.8883C31.5679 11.5713 30.6373 11.3553 29.2746 11.2928C27.9092 11.2306 27.4746 11.2154 23.9972 11.2154H24.0012Z" fill="#FDA704"/>
<path fill-rule="evenodd" clip-rule="evenodd" d="M22.8529 13.5252C23.1937 13.5247 23.574 13.5252 24.0012 13.5252C27.4188 13.5252 27.8239 13.5375 29.1735 13.5989C30.4215 13.6561 31.0989 13.8649 31.5501 14.0404C32.1474 14.2727 32.5733 14.5504 33.021 14.999C33.469 15.4476 33.7464 15.8749 33.9789 16.473C34.1541 16.9243 34.3629 17.6026 34.4197 18.8523C34.481 20.2035 34.4944 20.6094 34.4944 24.0302C34.4944 27.4509 34.481 27.8568 34.4197 29.208C34.3626 30.4577 34.1541 31.136 33.9789 31.5873C33.7469 32.1854 33.469 32.6113 33.021 33.0597C32.573 33.5083 32.1477 33.786 31.5501 34.0184C31.0994 34.1946 30.4215 34.4029 29.1735 34.46C27.8242 34.5215 27.4188 34.5348 24.0012 34.5348C20.5833 34.5348 20.1782 34.5215 18.8289 34.46C17.5809 34.4024 16.9035 34.1935 16.4521 34.0181C15.8547 33.7858 15.428 33.508 14.98 33.0594C14.532 32.6108 14.2547 32.1846 14.0222 31.5862C13.847 31.1349 13.6382 30.4566 13.5814 29.2069C13.52 27.8557 13.5078 27.4498 13.5078 24.027C13.5078 20.6041 13.52 20.2003 13.5814 18.8491C13.6384 17.5994 13.847 16.9211 14.0222 16.4693C14.2542 15.8711 14.532 15.4439 14.98 14.9953C15.428 14.5467 15.8547 14.2689 16.4521 14.0361C16.9033 13.8598 17.5809 13.6515 18.8289 13.5941C20.0097 13.5407 20.4673 13.5247 22.8529 13.522V13.5252ZM30.8338 15.6535C29.9858 15.6535 29.2978 16.3417 29.2978 17.1911C29.2978 18.0403 29.9858 18.7292 30.8338 18.7292C31.6818 18.7292 32.3698 18.0403 32.3698 17.1911C32.3698 16.3419 31.6818 15.6535 30.8338 15.6535ZM24.0012 17.4507C20.371 17.4507 17.4278 20.3979 17.4278 24.0331C17.4278 27.6682 20.371 30.6142 24.0012 30.6142C27.6314 30.6142 30.5735 27.6682 30.5735 24.0331C30.5735 20.3979 27.6314 17.4507 24.0012 17.4507Z" fill="#FDA704"/>
<path fill-rule="evenodd" clip-rule="evenodd" d="M24.0012 19.7605C26.3575 19.7605 28.2679 21.6733 28.2679 24.0331C28.2679 26.3926 26.3575 28.3057 24.0012 28.3057C21.6446 28.3057 19.7345 26.3926 19.7345 24.0331C19.7345 21.6733 21.6446 19.7605 24.0012 19.7605Z" fill="#FDA704"/>
</svg>
