<svg width="131" height="74" viewBox="0 0 131 74" fill="none" xmlns="http://www.w3.org/2000/svg">
<path d="M22.914 29.7287C26.1407 30.1687 28.4433 31.1074 29.822 32.5447C31.2007 33.9527 31.89 35.654 31.89 37.6487C31.89 39.3207 31.4647 40.802 30.614 42.0927C29.7633 43.3834 28.546 44.3954 26.962 45.1287C25.378 45.8327 23.5007 46.1847 21.33 46.1847C20.538 46.1847 19.8633 46.17 19.306 46.1407C17.4287 46.082 15.5807 46.0527 13.762 46.0527C11.3567 46.0527 9.53801 46.0967 8.30601 46.1847V45.3047C9.36201 45.246 10.1247 45.1287 10.594 44.9527C11.0927 44.7767 11.43 44.4394 11.606 43.9407C11.782 43.442 11.87 42.6354 11.87 41.5207V19.6967C11.87 18.582 11.782 17.7754 11.606 17.2767C11.43 16.778 11.0927 16.4407 10.594 16.2647C10.1247 16.0887 9.36201 15.9714 8.30601 15.9127V15.0327C9.53801 15.1207 11.3273 15.1647 13.674 15.1647L18.426 15.1207C18.9833 15.0914 19.614 15.0767 20.318 15.0767C23.31 15.0767 25.598 15.7074 27.182 16.9687C28.7953 18.23 29.602 19.902 29.602 21.9847C29.602 23.686 29.0593 25.2114 27.974 26.5607C26.918 27.91 25.2313 28.9367 22.914 29.6407V29.7287ZM19.218 15.9127C18.3087 15.9127 17.6193 16.0154 17.15 16.2207C16.71 16.426 16.402 16.7927 16.226 17.3207C16.05 17.8487 15.962 18.6407 15.962 19.6967V29.6407H18.91C21.3153 29.6407 22.9873 28.9954 23.926 27.7047C24.894 26.3847 25.378 24.6394 25.378 22.4687C25.378 20.2687 24.894 18.626 23.926 17.5407C22.958 16.4554 21.3887 15.9127 19.218 15.9127ZM19.262 45.1727C24.7473 45.1727 27.49 42.606 27.49 37.4727C27.49 35.1554 26.8593 33.3954 25.598 32.1927C24.366 30.99 22.386 30.3887 19.658 30.3887H15.962V41.5207C15.962 42.5767 16.05 43.354 16.226 43.8527C16.402 44.3514 16.71 44.7034 17.15 44.9087C17.6193 45.0847 18.3233 45.1727 19.262 45.1727ZM62.6113 43.9847C61.9366 44.982 61.262 45.7007 60.5873 46.1407C59.9126 46.5807 59.018 46.8007 57.9033 46.8007C56.7006 46.8007 55.7033 46.4487 54.9113 45.7447C54.1486 45.0407 53.5766 43.8087 53.1953 42.0487L52.2273 37.6487C51.8753 36.1234 51.538 34.95 51.2153 34.1287C50.922 33.3074 50.4673 32.6474 49.8513 32.1487C49.2353 31.65 48.37 31.4007 47.2553 31.4007H43.0753V41.5207C43.0753 42.6354 43.1633 43.442 43.3393 43.9407C43.5153 44.4394 43.838 44.7767 44.3073 44.9527C44.806 45.1287 45.5833 45.246 46.6393 45.3047V46.1847C45.29 46.0967 43.4273 46.0527 41.0513 46.0527C38.5286 46.0527 36.6513 46.0967 35.4193 46.1847V45.3047C36.4753 45.246 37.238 45.1287 37.7073 44.9527C38.206 44.7767 38.5433 44.4394 38.7193 43.9407C38.8953 43.442 38.9833 42.6354 38.9833 41.5207V19.6967C38.9833 18.582 38.8953 17.7754 38.7193 17.2767C38.5433 16.778 38.206 16.4407 37.7073 16.2647C37.238 16.0887 36.4753 15.9714 35.4193 15.9127V15.0327C36.6513 15.1207 38.4406 15.1647 40.7873 15.1647L45.5393 15.1207C46.0966 15.0914 46.7273 15.0767 47.4313 15.0767C50.834 15.0767 53.4446 15.7954 55.2633 17.2327C57.1113 18.6407 58.0353 20.474 58.0353 22.7327C58.0353 23.8767 57.7566 25.0354 57.1993 26.2087C56.6713 27.3527 55.762 28.394 54.4713 29.3327C53.21 30.242 51.5526 30.858 49.4993 31.1807L50.0273 31.2687C51.9633 31.5914 53.3713 32.178 54.2513 33.0287C55.1313 33.8794 55.7766 35.2287 56.1873 37.0767L57.2873 41.5647C57.5806 42.914 57.8886 43.8527 58.2113 44.3807C58.534 44.9087 58.974 45.1727 59.5313 45.1727C60.03 45.1727 60.4406 45.0407 60.7633 44.7767C61.1153 44.5127 61.5113 44.0874 61.9513 43.5007L62.6113 43.9847ZM46.3313 15.9127C45.422 15.9127 44.7326 16.0154 44.2633 16.2207C43.8233 16.426 43.5153 16.7927 43.3393 17.3207C43.1633 17.8487 43.0753 18.6407 43.0753 19.6967V30.5207H46.0233C48.9273 30.5207 50.922 29.8754 52.0073 28.5847C53.0926 27.294 53.6353 25.5047 53.6353 23.2167C53.6353 20.8114 53.0633 18.9927 51.9193 17.7607C50.7753 16.5287 48.9126 15.9127 46.3313 15.9127ZM90.6218 15.9127C89.5951 15.9714 88.8324 16.1327 88.3338 16.3967C87.8351 16.6314 87.4978 17.042 87.3218 17.6287C87.1458 18.186 87.0578 19.022 87.0578 20.1367V33.3807C87.0578 35.4927 86.9111 37.3114 86.6178 38.8367C86.3538 40.3327 85.8991 41.6234 85.2538 42.7087C84.5204 43.97 83.4351 44.9674 81.9978 45.7007C80.5898 46.434 78.9911 46.8007 77.2018 46.8007C73.9751 46.8007 71.5111 46.0087 69.8098 44.4247C68.5191 43.222 67.6538 41.858 67.2138 40.3327C66.7738 38.8074 66.5538 36.534 66.5538 33.5127V19.6967C66.5538 18.582 66.4658 17.7754 66.2898 17.2767C66.1138 16.778 65.7764 16.4407 65.2778 16.2647C64.8084 16.0887 64.0458 15.9714 62.9898 15.9127V15.0327C64.2218 15.1207 66.0991 15.1647 68.6218 15.1647C70.9978 15.1647 72.8604 15.1207 74.2098 15.0327V15.9127C73.1538 15.9714 72.3764 16.0887 71.8778 16.2647C71.4084 16.4407 71.0858 16.778 70.9098 17.2767C70.7338 17.7754 70.6458 18.582 70.6458 19.6967V34.2607C70.6458 36.6074 70.8071 38.558 71.1298 40.1127C71.4524 41.6674 72.1124 42.914 73.1098 43.8527C74.1364 44.7914 75.6324 45.2607 77.5978 45.2607C80.7071 45.2607 82.8924 44.2634 84.1538 42.2687C85.4151 40.274 86.0458 37.4727 86.0458 33.8647V20.1367C86.0458 18.5527 85.7524 17.4674 85.1658 16.8807C84.6084 16.294 83.5671 15.9714 82.0418 15.9127V15.0327C83.0978 15.1207 84.5938 15.1647 86.5298 15.1647C88.2898 15.1647 89.6538 15.1207 90.6218 15.0327V15.9127ZM81.9978 5.44069C82.4671 5.14736 82.9071 5.00069 83.3178 5.00069C83.8751 5.00069 84.3298 5.25002 84.6818 5.74869C84.8578 6.01269 84.9458 6.29136 84.9458 6.58469C84.9458 7.23002 84.5498 7.80202 83.7578 8.30069C83.1418 8.68202 82.0858 9.15136 80.5898 9.70869C78.3898 10.5887 76.4978 11.4247 74.9138 12.2167L74.6058 11.6447C75.8084 10.7354 76.8351 9.89936 77.6858 9.13669C78.5658 8.34469 79.1084 7.86069 79.3138 7.68469C80.3991 6.65802 81.2938 5.91002 81.9978 5.44069ZM121.274 15.9127C120.247 15.9714 119.485 16.1327 118.986 16.3967C118.487 16.6314 118.15 17.042 117.974 17.6287C117.798 18.186 117.71 19.022 117.71 20.1367V46.4047H116.698L98.2179 17.8487V41.0807C98.2179 42.2247 98.3059 43.0754 98.4819 43.6327C98.6873 44.19 99.0686 44.6007 99.6259 44.8647C100.183 45.0994 101.049 45.246 102.222 45.3047V46.1847C101.166 46.0967 99.6699 46.0527 97.7339 46.0527C95.9739 46.0527 94.6099 46.0967 93.6419 46.1847V45.3047C94.6686 45.246 95.4313 45.0994 95.9299 44.8647C96.4286 44.6007 96.7659 44.19 96.9419 43.6327C97.1179 43.046 97.2059 42.1954 97.2059 41.0807V19.6967C97.2059 18.582 97.1179 17.7754 96.9419 17.2767C96.7659 16.778 96.4286 16.4407 95.9299 16.2647C95.4606 16.0887 94.6979 15.9714 93.6419 15.9127V15.0327C94.6099 15.1207 95.9739 15.1647 97.7339 15.1647C99.0539 15.1647 100.198 15.1207 101.166 15.0327L116.698 38.9687V20.1367C116.698 18.9927 116.595 18.142 116.39 17.5847C116.214 17.0274 115.847 16.6314 115.29 16.3967C114.733 16.1327 113.867 15.9714 112.694 15.9127V15.0327C113.75 15.1207 115.246 15.1647 117.182 15.1647C118.942 15.1647 120.306 15.1207 121.274 15.0327V15.9127ZM18.668 64.2597C18.3843 64.679 18.1007 64.9812 17.817 65.1662C17.5333 65.3512 17.1572 65.4437 16.6885 65.4437C16.1828 65.4437 15.7635 65.2957 15.4305 64.9997C15.1098 64.7037 14.8693 64.1857 14.709 63.4457L14.302 61.5957C14.154 60.9544 14.0122 60.461 13.8765 60.1157C13.7532 59.7704 13.562 59.4929 13.303 59.2832C13.044 59.0735 12.6802 58.9687 12.2115 58.9687H10.454V63.2237C10.454 63.6924 10.491 64.0315 10.565 64.2412C10.639 64.4509 10.7747 64.5927 10.972 64.6667C11.1817 64.7407 11.5085 64.79 11.9525 64.8147V65.1847C11.3852 65.1477 10.602 65.1292 9.60301 65.1292C8.54234 65.1292 7.75301 65.1477 7.23501 65.1847V64.8147C7.67901 64.79 7.99967 64.7407 8.19701 64.6667C8.40667 64.5927 8.54851 64.4509 8.62251 64.2412C8.69651 64.0315 8.73351 63.6924 8.73351 63.2237V54.0477C8.73351 53.579 8.69651 53.2399 8.62251 53.0302C8.54851 52.8205 8.40667 52.6787 8.19701 52.6047C7.99967 52.5307 7.67901 52.4814 7.23501 52.4567V52.0867C7.75301 52.1237 8.50534 52.1422 9.49201 52.1422L11.49 52.1237C11.7243 52.1114 11.9895 52.1052 12.2855 52.1052C13.7162 52.1052 14.8138 52.4074 15.5785 53.0117C16.3555 53.6037 16.744 54.3745 16.744 55.3242C16.744 55.8052 16.6268 56.2924 16.3925 56.7857C16.1705 57.2667 15.7882 57.7045 15.2455 58.0992C14.7152 58.4815 14.0183 58.7405 13.155 58.8762L13.377 58.9132C14.191 59.0489 14.783 59.2955 15.153 59.6532C15.523 60.0109 15.7943 60.5782 15.967 61.3552L16.4295 63.2422C16.5528 63.8095 16.6823 64.2042 16.818 64.4262C16.9537 64.6482 17.1387 64.7592 17.373 64.7592C17.5827 64.7592 17.7553 64.7037 17.891 64.5927C18.039 64.4817 18.2055 64.3029 18.3905 64.0562L18.668 64.2597ZM11.823 52.4567C11.4407 52.4567 11.1508 52.4999 10.9535 52.5862C10.7685 52.6725 10.639 52.8267 10.565 53.0487C10.491 53.2707 10.454 53.6037 10.454 54.0477V58.5987H11.6935C12.9145 58.5987 13.7532 58.3274 14.2095 57.7847C14.6658 57.242 14.894 56.4897 14.894 55.5277C14.894 54.5164 14.6535 53.7517 14.1725 53.2337C13.6915 52.7157 12.9083 52.4567 11.823 52.4567ZM28.7031 62.8167C28.7031 63.5197 28.7463 64.309 28.8326 65.1847C27.9939 65.1477 26.5818 65.1292 24.5961 65.1292C22.2281 65.1292 20.4398 65.1477 19.2311 65.1847V64.8147C19.6751 64.79 19.9958 64.7407 20.1931 64.6667C20.4028 64.5927 20.5446 64.4509 20.6186 64.2412C20.6926 64.0315 20.7296 63.6924 20.7296 63.2237V54.0477C20.7296 53.579 20.6926 53.2399 20.6186 53.0302C20.5446 52.8205 20.4028 52.6787 20.1931 52.6047C19.9958 52.5307 19.6751 52.4814 19.2311 52.4567V52.0867C20.4398 52.1237 22.2281 52.1422 24.5961 52.1422C26.4091 52.1422 27.6979 52.1237 28.4626 52.0867C28.3763 52.9007 28.3331 53.6284 28.3331 54.2697C28.3331 54.7507 28.3516 55.133 28.3886 55.4167H27.9631C27.8768 54.615 27.7658 54.023 27.6301 53.6407C27.4944 53.246 27.2663 52.9624 26.9456 52.7897C26.6249 52.6047 26.1378 52.5122 25.4841 52.5122H23.9486C23.5046 52.5122 23.1778 52.5492 22.9681 52.6232C22.7708 52.6849 22.6351 52.8205 22.5611 53.0302C22.4871 53.2399 22.4501 53.579 22.4501 54.0477V58.4137H23.6711C24.1028 58.4137 24.4358 58.315 24.6701 58.1177C24.9044 57.908 25.0586 57.6675 25.1326 57.3962C25.2189 57.1125 25.2868 56.761 25.3361 56.3417L25.3916 55.9717H25.8171C25.7801 56.4897 25.7616 57.0694 25.7616 57.7107V58.5987C25.7616 59.2277 25.7986 60.1034 25.8726 61.2257H25.4471C25.4348 61.1394 25.3978 60.8434 25.3361 60.3377C25.2744 59.8197 25.1018 59.4312 24.8181 59.1722C24.5468 58.9132 24.1644 58.7837 23.6711 58.7837H22.4501V63.2237C22.4501 63.6924 22.4871 64.0315 22.5611 64.2412C22.6351 64.4509 22.7708 64.5927 22.9681 64.6667C23.1778 64.7284 23.5046 64.7592 23.9486 64.7592H25.2991C26.0638 64.7592 26.6434 64.6605 27.0381 64.4632C27.4451 64.2535 27.7411 63.9267 27.9261 63.4827C28.1111 63.0264 28.2468 62.3604 28.3331 61.4847H28.7586C28.7216 61.8177 28.7031 62.2617 28.7031 62.8167ZM34.4635 51.8832C35.0062 51.8832 35.4317 51.9449 35.74 52.0682C36.0607 52.1792 36.3875 52.3457 36.7205 52.5677C36.9919 52.7404 37.2015 52.8267 37.3495 52.8267C37.4605 52.8267 37.5469 52.765 37.6085 52.6417C37.6702 52.506 37.7195 52.2964 37.7565 52.0127H38.182C38.1204 52.728 38.0895 53.986 38.0895 55.7867H37.664C37.59 54.7877 37.3002 53.949 36.7945 53.2707C36.3012 52.58 35.5797 52.2347 34.63 52.2347C33.964 52.2347 33.4214 52.4382 33.002 52.8452C32.5827 53.2399 32.373 53.7517 32.373 54.3807C32.373 54.8494 32.4779 55.2564 32.6875 55.6017C32.9095 55.947 33.187 56.243 33.52 56.4897C33.853 56.7364 34.3279 57.0509 34.9445 57.4332L35.481 57.7662C36.258 58.2472 36.8685 58.6727 37.3125 59.0427C37.7689 59.4004 38.1327 59.8135 38.404 60.2822C38.6754 60.7509 38.811 61.2997 38.811 61.9287C38.811 63.051 38.441 63.9205 37.701 64.5372C36.961 65.1415 36.0237 65.4437 34.889 65.4437C34.297 65.4437 33.8099 65.382 33.4275 65.2587C33.0575 65.1354 32.6999 64.9689 32.3545 64.7592C32.0832 64.5865 31.8735 64.5002 31.7255 64.5002C31.6145 64.5002 31.5282 64.568 31.4665 64.7037C31.4049 64.827 31.3555 65.0305 31.3185 65.3142H30.893C30.9424 64.6359 30.967 63.1559 30.967 60.8742H31.3925C31.4789 62.1199 31.7872 63.1312 32.3175 63.9082C32.8479 64.6852 33.6619 65.0737 34.7595 65.0737C35.4255 65.0737 35.9929 64.8702 36.4615 64.4632C36.9302 64.0439 37.1645 63.4272 37.1645 62.6132C37.1645 61.9225 36.9302 61.3367 36.4615 60.8557C36.0052 60.3747 35.2775 59.832 34.2785 59.2277C33.5509 58.7837 32.9589 58.389 32.5025 58.0437C32.0585 57.6984 31.6947 57.2852 31.411 56.8042C31.1274 56.3109 30.9855 55.7374 30.9855 55.0837C30.9855 54.0477 31.3185 53.2584 31.9845 52.7157C32.6505 52.1607 33.4769 51.8832 34.4635 51.8832ZM50.6703 52.0867C50.5839 52.9624 50.5408 53.7517 50.5408 54.4547C50.5408 55.0714 50.5593 55.577 50.5963 55.9717H50.1708C50.0721 55.022 49.9488 54.319 49.8008 53.8627C49.6528 53.394 49.3938 53.0549 49.0238 52.8452C48.6538 52.6232 48.0864 52.5122 47.3218 52.5122H46.3228V63.0387C46.3228 63.5567 46.3721 63.9329 46.4708 64.1672C46.5694 64.4015 46.7421 64.5619 46.9888 64.6482C47.2354 64.7345 47.6363 64.79 48.1913 64.8147V65.1847C47.5499 65.1477 46.6434 65.1292 45.4718 65.1292C44.2384 65.1292 43.3258 65.1477 42.7338 65.1847V64.8147C43.2888 64.79 43.6896 64.7345 43.9363 64.6482C44.1829 64.5619 44.3556 64.4015 44.4543 64.1672C44.5529 63.9329 44.6023 63.5567 44.6023 63.0387V52.5122H43.6033C42.8386 52.5122 42.2713 52.6232 41.9013 52.8452C41.5313 53.0549 41.2723 53.394 41.1243 53.8627C40.9763 54.319 40.8529 55.022 40.7543 55.9717H40.3288C40.3658 55.577 40.3843 55.0714 40.3843 54.4547C40.3843 53.7517 40.3411 52.9624 40.2548 52.0867C41.2784 52.1237 43.0174 52.1422 45.4718 52.1422C47.9138 52.1422 49.6466 52.1237 50.6703 52.0867ZM60.8308 63.6307C61.1268 64.3954 61.5523 64.79 62.1073 64.8147V65.1847C61.614 65.1477 60.9541 65.1292 60.1278 65.1292C59.0671 65.1292 58.2778 65.1477 57.7598 65.1847V64.8147C58.2285 64.79 58.5615 64.7345 58.7588 64.6482C58.9685 64.5495 59.0733 64.3769 59.0733 64.1302C59.0733 63.9205 58.9993 63.6307 58.8513 63.2607L57.7228 60.2267H53.2458L52.4873 62.1877C52.2406 62.8537 52.1173 63.3594 52.1173 63.7047C52.1173 64.087 52.2468 64.3645 52.5058 64.5372C52.7771 64.7099 53.1841 64.8024 53.7268 64.8147V65.1847C53.0238 65.1477 52.3146 65.1292 51.5993 65.1292C51.0443 65.1292 50.5818 65.1477 50.2118 65.1847V64.8147C50.8285 64.6667 51.3156 64.1302 51.6733 63.2052L56.0208 51.9942H56.3168L60.8308 63.6307ZM57.5748 59.8567L55.5028 54.3252L53.3938 59.8567H57.5748ZM74.1116 52.4567C73.68 52.4814 73.3593 52.5492 73.1496 52.6602C72.94 52.7589 72.7981 52.9315 72.7241 53.1782C72.6501 53.4125 72.6131 53.764 72.6131 54.2327V59.8012C72.6131 60.6892 72.5515 61.4539 72.4281 62.0952C72.3171 62.7242 72.126 63.2669 71.8546 63.7232C71.5463 64.2535 71.09 64.6729 70.4856 64.9812C69.8936 65.2895 69.2215 65.4437 68.4691 65.4437C67.1125 65.4437 66.0765 65.1107 65.3611 64.4447C64.8185 63.939 64.4546 63.3655 64.2696 62.7242C64.0846 62.0829 63.9921 61.127 63.9921 59.8567V54.0477C63.9921 53.579 63.9551 53.2399 63.8811 53.0302C63.8071 52.8205 63.6653 52.6787 63.4556 52.6047C63.2583 52.5307 62.9376 52.4814 62.4936 52.4567V52.0867C63.0116 52.1237 63.801 52.1422 64.8616 52.1422C65.8606 52.1422 66.6438 52.1237 67.2111 52.0867V52.4567C66.7671 52.4814 66.4403 52.5307 66.2306 52.6047C66.0333 52.6787 65.8976 52.8205 65.8236 53.0302C65.7496 53.2399 65.7126 53.579 65.7126 54.0477V60.1712C65.7126 61.1579 65.7805 61.978 65.9161 62.6317C66.0518 63.2854 66.3293 63.8095 66.7486 64.2042C67.1803 64.5989 67.8093 64.7962 68.6356 64.7962C69.943 64.7962 70.8618 64.3769 71.3921 63.5382C71.9225 62.6995 72.1876 61.5217 72.1876 60.0047V54.2327C72.1876 53.5667 72.0643 53.1104 71.8176 52.8637C71.5833 52.617 71.1455 52.4814 70.5041 52.4567V52.0867C70.9481 52.1237 71.5771 52.1422 72.3911 52.1422C73.1311 52.1422 73.7046 52.1237 74.1116 52.0867V52.4567ZM86.8145 64.2597C86.5308 64.679 86.2472 64.9812 85.9635 65.1662C85.6798 65.3512 85.3037 65.4437 84.835 65.4437C84.3293 65.4437 83.91 65.2957 83.577 64.9997C83.2563 64.7037 83.0158 64.1857 82.8555 63.4457L82.4485 61.5957C82.3005 60.9544 82.1587 60.461 82.023 60.1157C81.8997 59.7704 81.7085 59.4929 81.4495 59.2832C81.1905 59.0735 80.8267 58.9687 80.358 58.9687H78.6005V63.2237C78.6005 63.6924 78.6375 64.0315 78.7115 64.2412C78.7855 64.4509 78.9212 64.5927 79.1185 64.6667C79.3282 64.7407 79.655 64.79 80.099 64.8147V65.1847C79.5317 65.1477 78.7485 65.1292 77.7495 65.1292C76.6888 65.1292 75.8995 65.1477 75.3815 65.1847V64.8147C75.8255 64.79 76.1462 64.7407 76.3435 64.6667C76.5532 64.5927 76.695 64.4509 76.769 64.2412C76.843 64.0315 76.88 63.6924 76.88 63.2237V54.0477C76.88 53.579 76.843 53.2399 76.769 53.0302C76.695 52.8205 76.5532 52.6787 76.3435 52.6047C76.1462 52.5307 75.8255 52.4814 75.3815 52.4567V52.0867C75.8995 52.1237 76.6518 52.1422 77.6385 52.1422L79.6365 52.1237C79.8708 52.1114 80.136 52.1052 80.432 52.1052C81.8627 52.1052 82.9603 52.4074 83.725 53.0117C84.502 53.6037 84.8905 54.3745 84.8905 55.3242C84.8905 55.8052 84.7733 56.2924 84.539 56.7857C84.317 57.2667 83.9347 57.7045 83.392 58.0992C82.8617 58.4815 82.1648 58.7405 81.3015 58.8762L81.5235 58.9132C82.3375 59.0489 82.9295 59.2955 83.2995 59.6532C83.6695 60.0109 83.9408 60.5782 84.1135 61.3552L84.576 63.2422C84.6993 63.8095 84.8288 64.2042 84.9645 64.4262C85.1002 64.6482 85.2852 64.7592 85.5195 64.7592C85.7292 64.7592 85.9018 64.7037 86.0375 64.5927C86.1855 64.4817 86.352 64.3029 86.537 64.0562L86.8145 64.2597ZM79.9695 52.4567C79.5872 52.4567 79.2973 52.4999 79.1 52.5862C78.915 52.6725 78.7855 52.8267 78.7115 53.0487C78.6375 53.2707 78.6005 53.6037 78.6005 54.0477V58.5987H79.84C81.061 58.5987 81.8997 58.3274 82.356 57.7847C82.8123 57.242 83.0405 56.4897 83.0405 55.5277C83.0405 54.5164 82.8 53.7517 82.319 53.2337C81.838 52.7157 81.0548 52.4567 79.9695 52.4567ZM97.0901 63.6307C97.3861 64.3954 97.8116 64.79 98.3666 64.8147V65.1847C97.8733 65.1477 97.2134 65.1292 96.3871 65.1292C95.3264 65.1292 94.5371 65.1477 94.0191 65.1847V64.8147C94.4878 64.79 94.8208 64.7345 95.0181 64.6482C95.2278 64.5495 95.3326 64.3769 95.3326 64.1302C95.3326 63.9205 95.2586 63.6307 95.1106 63.2607L93.9821 60.2267H89.5051L88.7466 62.1877C88.4999 62.8537 88.3766 63.3594 88.3766 63.7047C88.3766 64.087 88.5061 64.3645 88.7651 64.5372C89.0364 64.7099 89.4434 64.8024 89.9861 64.8147V65.1847C89.2831 65.1477 88.5739 65.1292 87.8586 65.1292C87.3036 65.1292 86.8411 65.1477 86.4711 65.1847V64.8147C87.0878 64.6667 87.5749 64.1302 87.9326 63.2052L92.2801 51.9942H92.5761L97.0901 63.6307ZM93.8341 59.8567L91.7621 54.3252L89.6531 59.8567H93.8341ZM110.287 52.4567C109.855 52.4814 109.535 52.5492 109.325 52.6602C109.115 52.7589 108.974 52.9315 108.9 53.1782C108.826 53.4125 108.789 53.764 108.789 54.2327V65.2772H108.363L100.593 53.2707V63.0387C100.593 63.5197 100.63 63.8774 100.704 64.1117C100.79 64.346 100.951 64.5187 101.185 64.6297C101.419 64.7284 101.783 64.79 102.277 64.8147V65.1847C101.833 65.1477 101.204 65.1292 100.39 65.1292C99.6496 65.1292 99.0761 65.1477 98.6691 65.1847V64.8147C99.1008 64.79 99.4214 64.7284 99.6311 64.6297C99.8408 64.5187 99.9826 64.346 100.057 64.1117C100.131 63.865 100.168 63.5074 100.168 63.0387V54.0477C100.168 53.579 100.131 53.2399 100.057 53.0302C99.9826 52.8205 99.8408 52.6787 99.6311 52.6047C99.4338 52.5307 99.1131 52.4814 98.6691 52.4567V52.0867C99.0761 52.1237 99.6496 52.1422 100.39 52.1422C100.945 52.1422 101.426 52.1237 101.833 52.0867L108.363 62.1507V54.2327C108.363 53.7517 108.32 53.394 108.234 53.1597C108.16 52.9254 108.005 52.7589 107.771 52.6602C107.537 52.5492 107.173 52.4814 106.68 52.4567V52.0867C107.124 52.1237 107.753 52.1422 108.567 52.1422C109.307 52.1422 109.88 52.1237 110.287 52.0867V52.4567ZM121.906 52.0867C121.82 52.9624 121.777 53.7517 121.777 54.4547C121.777 55.0714 121.795 55.577 121.832 55.9717H121.407C121.308 55.022 121.185 54.319 121.037 53.8627C120.889 53.394 120.63 53.0549 120.26 52.8452C119.89 52.6232 119.322 52.5122 118.558 52.5122H117.559V63.0387C117.559 63.5567 117.608 63.9329 117.707 64.1672C117.805 64.4015 117.978 64.5619 118.225 64.6482C118.471 64.7345 118.872 64.79 119.427 64.8147V65.1847C118.786 65.1477 117.879 65.1292 116.708 65.1292C115.474 65.1292 114.562 65.1477 113.97 65.1847V64.8147C114.525 64.79 114.925 64.7345 115.172 64.6482C115.419 64.5619 115.591 64.4015 115.69 64.1672C115.789 63.9329 115.838 63.5567 115.838 63.0387V52.5122H114.839C114.074 52.5122 113.507 52.6232 113.137 52.8452C112.767 53.0549 112.508 53.394 112.36 53.8627C112.212 54.319 112.089 55.022 111.99 55.9717H111.565C111.602 55.577 111.62 55.0714 111.62 54.4547C111.62 53.7517 111.577 52.9624 111.491 52.0867C112.514 52.1237 114.253 52.1422 116.708 52.1422C119.15 52.1422 120.882 52.1237 121.906 52.0867Z" fill="#160E0C"/>
</svg>
