<svg width="305" height="49" viewBox="0 0 305 49" fill="none" xmlns="http://www.w3.org/2000/svg">
<path fill-rule="evenodd" clip-rule="evenodd" d="M0 24.8997C0 11.6266 10.7452 0.866699 24 0.866699C37.2548 0.866699 48 11.6266 48 24.8997C48 38.1727 37.2548 48.9326 24 48.9326C10.7452 48.9326 0 38.1727 0 24.8997ZM26.5016 39.0305V25.9553H30.1059L30.5836 21.4495H26.5016L26.5077 19.1943C26.5077 18.0192 26.6192 17.3895 28.3048 17.3895H30.5581V12.8832H26.9532C22.6231 12.8832 21.0991 15.069 21.0991 18.7448V21.45H18.4V25.9558H21.0991V39.0305H26.5016Z" fill="#FDA704"/>
<path fill-rule="evenodd" clip-rule="evenodd" d="M257 24.8997C257 11.6266 267.745 0.866699 281 0.866699C294.255 0.866699 305 11.6266 305 24.8997C305 38.1727 294.255 48.9326 281 48.9326C267.745 48.9326 257 38.1727 257 24.8997ZM294.985 19.0311L290.239 19.0279C287.578 17.2818 284.347 16.3562 280.766 16.3562C277.05 16.3562 273.694 17.3046 271.048 19.0626L266.6 19.0658C266.6 19.0658 267.645 20.5008 267.983 21.9402C267.118 23.1346 266.604 24.6042 266.604 26.1986C266.604 30.1806 269.794 33.4202 273.714 33.4202C275.955 33.4202 277.953 32.3591 279.256 30.7106L280.77 33.0138L282.295 30.69C282.981 31.5766 283.866 32.2952 284.904 32.7851C286.63 33.5914 288.564 33.6695 290.344 33.0018C294.022 31.6188 295.91 27.4537 294.55 23.722C294.311 23.0641 293.985 22.468 293.594 21.9315C293.927 20.4824 294.985 19.0311 294.985 19.0311Z" fill="#FDA704"/>
<path fill-rule="evenodd" clip-rule="evenodd" d="M278.41 29.4262C277.389 30.9555 275.663 31.9635 273.711 31.9635C270.582 31.9635 268.036 29.3742 268.036 26.1997C268.036 23.0186 270.583 20.4336 273.711 20.4336C276.84 20.4336 279.386 23.0186 279.386 26.1997C279.386 26.3937 279.349 26.5768 279.33 26.7643C279.235 27.7398 278.926 28.6535 278.41 29.4262ZM270.108 26.1303C270.108 28.0996 271.685 29.6983 273.622 29.6983C275.555 29.6983 277.13 28.0996 277.13 26.1303C277.13 24.1664 275.554 22.5666 273.622 22.5666C271.685 22.5677 270.108 24.1653 270.108 26.1303Z" fill="#FDA704"/>
<path fill-rule="evenodd" clip-rule="evenodd" d="M289.846 31.6351C288.424 32.1673 286.882 32.1077 285.505 31.4617C284.527 31.0021 283.727 30.2814 283.151 29.3872C282.917 29.0252 282.71 28.6405 282.558 28.221C282.386 27.7463 282.299 27.2564 282.252 26.7633C282.157 25.7629 282.3 24.7495 282.725 23.813C283.361 22.4138 284.493 21.3484 285.915 20.8151C288.852 19.715 292.12 21.2454 293.205 24.2281C294.289 27.2098 292.781 30.5296 289.846 31.6351ZM284.354 26.1303C284.354 28.0996 285.928 29.6983 287.865 29.6983C289.799 29.6983 291.372 28.0996 291.372 26.1303C291.372 24.1664 289.799 22.5666 287.865 22.5666C285.929 22.5677 284.354 24.1653 284.354 26.1303Z" fill="#FDA704"/>
<path fill-rule="evenodd" clip-rule="evenodd" d="M271.319 26.1303C271.319 24.8427 272.355 23.7946 273.624 23.7946C274.891 23.7946 275.922 24.8438 275.922 26.1303C275.922 27.4222 274.891 28.4714 273.624 28.4714C272.355 28.4725 271.319 27.4233 271.319 26.1303ZM274.801 26.1303C274.801 25.4691 274.271 24.9326 273.62 24.9337C272.966 24.9337 272.438 25.4691 272.438 26.1303C272.438 26.7925 272.966 27.3344 273.62 27.3344C274.271 27.3344 274.801 26.7925 274.801 26.1303Z" fill="#FDA704"/>
<path fill-rule="evenodd" clip-rule="evenodd" d="M285.564 26.1303C285.564 24.8427 286.597 23.7946 287.867 23.7946C289.134 23.7946 290.164 24.8438 290.164 26.1303C290.164 27.4222 289.134 28.4714 287.867 28.4714C286.596 28.4725 285.564 27.4233 285.564 26.1303ZM289.045 26.1303C289.045 25.4691 288.518 24.9326 287.866 24.9337C287.21 24.9337 286.684 25.4691 286.684 26.1303C286.684 26.7925 287.21 27.3344 287.866 27.3344C288.518 27.3344 289.045 26.7925 289.045 26.1303Z" fill="#FDA704"/>
<path fill-rule="evenodd" clip-rule="evenodd" d="M285.417 19.4462C286.157 19.1688 286.915 19.0344 287.662 19.0138C285.625 18.086 283.319 17.6167 280.764 17.6167C278.229 17.6167 275.89 18.098 273.853 18.9813C277.539 19.0561 280.535 21.9889 280.793 25.6848C280.856 24.8362 281.06 23.9973 281.42 23.2028C282.215 21.447 283.636 20.1139 285.417 19.4462Z" fill="#FDA704"/>
<path fill-rule="evenodd" clip-rule="evenodd" d="M129 24.8997C129 11.6266 139.745 0.866699 153 0.866699C166.255 0.866699 177 11.6266 177 24.8997C177 38.1727 166.255 48.9326 153 48.9326C139.745 48.9326 129 38.1727 129 24.8997ZM153.001 12.0821C149.525 12.0821 149.089 12.0973 147.723 12.1595C146.361 12.222 145.43 12.438 144.617 12.755C143.775 13.0824 143.061 13.5203 142.349 14.2331C141.637 14.9455 141.2 15.6606 140.872 16.5034C140.554 17.3186 140.338 18.2503 140.277 19.6144C140.216 20.9816 140.2 21.4187 140.2 24.8998C140.2 28.3809 140.215 28.8164 140.277 30.1836C140.34 31.5482 140.556 32.4796 140.872 33.2946C141.199 34.1376 141.637 34.8527 142.348 35.5652C143.059 36.2782 143.774 36.7172 144.615 37.0446C145.429 37.3615 146.36 37.5776 147.722 37.6401C149.088 37.7023 149.524 37.7175 153 37.7175C156.476 37.7175 156.911 37.7023 158.276 37.6401C159.639 37.5776 160.57 37.3615 161.385 37.0446C162.226 36.7172 162.939 36.2782 163.651 35.5652C164.363 34.8527 164.8 34.1376 165.128 33.2949C165.443 32.4796 165.659 31.5479 165.723 30.1839C165.784 28.8167 165.8 28.3809 165.8 24.8998C165.8 21.4187 165.784 20.9818 165.723 19.6146C165.659 18.2501 165.443 17.3186 165.128 16.5037C164.8 15.6606 164.363 14.9455 163.651 14.2331C162.939 13.5201 162.227 13.0821 161.384 12.755C160.568 12.438 159.637 12.222 158.275 12.1595C156.909 12.0973 156.475 12.0821 152.997 12.0821H153.001Z" fill="#FDA704"/>
<path fill-rule="evenodd" clip-rule="evenodd" d="M151.853 14.3919C152.194 14.3914 152.574 14.3919 153.001 14.3919C156.419 14.3919 156.824 14.4042 158.174 14.4656C159.422 14.5228 160.099 14.7316 160.55 14.9071C161.147 15.1394 161.573 15.4171 162.021 15.8657C162.469 16.3143 162.746 16.7416 162.979 17.3397C163.154 17.791 163.363 18.4693 163.42 19.719C163.481 21.0702 163.494 21.4761 163.494 24.8969C163.494 28.3176 163.481 28.7235 163.42 30.0747C163.363 31.3244 163.154 32.0027 162.979 32.454C162.747 33.0521 162.469 33.478 162.021 33.9264C161.573 34.375 161.148 34.6527 160.55 34.8851C160.099 35.0613 159.422 35.2696 158.174 35.3267C156.824 35.3881 156.419 35.4015 153.001 35.4015C149.583 35.4015 149.178 35.3881 147.829 35.3267C146.581 35.2691 145.904 35.0602 145.452 34.8848C144.855 34.6525 144.428 34.3747 143.98 33.9261C143.532 33.4775 143.255 33.0513 143.022 32.4529C142.847 32.0016 142.638 31.3233 142.581 30.0736C142.52 28.7224 142.508 28.3165 142.508 24.8936C142.508 21.4708 142.52 21.067 142.581 19.7158C142.638 18.4661 142.847 17.7878 143.022 17.336C143.254 16.7378 143.532 16.3106 143.98 15.862C144.428 15.4133 144.855 15.1356 145.452 14.9028C145.903 14.7265 146.581 14.5182 147.829 14.4608C149.01 14.4074 149.467 14.3914 151.853 14.3887V14.3919ZM159.834 16.5202C158.986 16.5202 158.298 17.2084 158.298 18.0578C158.298 18.907 158.986 19.5959 159.834 19.5959C160.682 19.5959 161.37 18.907 161.37 18.0578C161.37 17.2086 160.682 16.5202 159.834 16.5202ZM153.001 18.3174C149.371 18.3174 146.428 21.2646 146.428 24.8998C146.428 28.5349 149.371 31.4809 153.001 31.4809C156.631 31.4809 159.574 28.5349 159.574 24.8998C159.574 21.2646 156.631 18.3174 153.001 18.3174Z" fill="#FDA704"/>
<path fill-rule="evenodd" clip-rule="evenodd" d="M153.001 20.6272C155.357 20.6272 157.268 22.54 157.268 24.8998C157.268 27.2593 155.357 29.1724 153.001 29.1724C150.645 29.1724 148.734 27.2593 148.734 24.8998C148.734 22.54 150.645 20.6272 153.001 20.6272Z" fill="#FDA704"/>
</svg>
