<svg width="48" height="49" viewBox="0 0 48 49" fill="none" xmlns="http://www.w3.org/2000/svg">
<path fill-rule="evenodd" clip-rule="evenodd" d="M0 24.033C0 10.7599 10.7452 0 24 0C37.2548 0 48 10.7599 48 24.033C48 37.306 37.2548 48.0659 24 48.0659C10.7452 48.0659 0 37.306 0 24.033ZM37.9851 18.1644L33.2395 18.1612C30.5781 16.4151 27.3472 15.4895 23.7664 15.4895C20.0501 15.4895 16.6944 16.4379 14.048 18.1959L9.6 18.1991C9.6 18.1991 10.6453 19.6341 10.9835 21.0735C10.1184 22.2679 9.60427 23.7375 9.60427 25.3319C9.60427 29.3139 12.7936 32.5535 16.7136 32.5535C18.9547 32.5535 20.9525 31.4924 22.256 29.8439L23.7696 32.1471L25.2949 29.8233C25.9808 30.7099 26.8661 31.4285 27.904 31.9184C29.6299 32.7247 31.5637 32.8028 33.344 32.1351C37.0219 30.7521 38.9099 26.587 37.5499 22.8553C37.3109 22.1974 36.9845 21.6013 36.5941 21.0648C36.9269 19.6157 37.9851 18.1644 37.9851 18.1644Z" fill="#FDA704"/>
<path fill-rule="evenodd" clip-rule="evenodd" d="M21.4101 28.5595C20.3893 30.0888 18.6635 31.0968 16.7115 31.0968C13.5819 31.0968 11.0357 28.5075 11.0357 25.333C11.0357 22.1519 13.5829 19.5669 16.7115 19.5669C19.84 19.5669 22.3861 22.1519 22.3861 25.333C22.3861 25.527 22.3488 25.7101 22.3296 25.8976C22.2347 26.8731 21.9264 27.7868 21.4101 28.5595ZM13.1083 25.2636C13.1083 27.2329 14.6848 28.8316 16.6219 28.8316C18.5547 28.8316 20.1301 27.2329 20.1301 25.2636C20.1301 23.2997 18.5536 21.6999 16.6219 21.6999C14.6848 21.701 13.1083 23.2986 13.1083 25.2636Z" fill="#FDA704"/>
<path fill-rule="evenodd" clip-rule="evenodd" d="M32.8459 30.7684C31.424 31.3006 29.8816 31.241 28.5045 30.595C27.5275 30.1354 26.7275 29.4147 26.1515 28.5205C25.9168 28.1585 25.7099 27.7738 25.5584 27.3543C25.3856 26.8796 25.2992 26.3897 25.2523 25.8966C25.1573 24.8962 25.3003 23.8828 25.7248 22.9463C26.3605 21.5471 27.4933 20.4817 28.9152 19.9484C31.8517 18.8483 35.12 20.3787 36.2048 23.3615C37.2885 26.3431 35.7813 29.6629 32.8459 30.7684ZM27.3536 25.2636C27.3536 27.2329 28.928 28.8316 30.8651 28.8316C32.7989 28.8316 34.3723 27.2329 34.3723 25.2636C34.3723 23.2997 32.7989 21.6999 30.8651 21.6999C28.9291 21.701 27.3536 23.2986 27.3536 25.2636Z" fill="#FDA704"/>
<path fill-rule="evenodd" clip-rule="evenodd" d="M14.3189 25.2636C14.3189 23.976 15.3547 22.9279 16.624 22.9279C17.8912 22.9279 18.9216 23.9771 18.9216 25.2636C18.9216 26.5555 17.8912 27.6047 16.624 27.6047C15.3547 27.6058 14.3189 26.5566 14.3189 25.2636ZM17.8005 25.2636C17.8005 24.6024 17.2715 24.0659 16.6197 24.067C15.9659 24.067 15.4379 24.6024 15.4379 25.2636C15.4379 25.9258 15.9659 26.4677 16.6197 26.4677C17.2715 26.4677 17.8005 25.9258 17.8005 25.2636Z" fill="#FDA704"/>
<path fill-rule="evenodd" clip-rule="evenodd" d="M28.5643 25.2636C28.5643 23.976 29.5968 22.9279 30.8672 22.9279C32.1344 22.9279 33.1637 23.9771 33.1637 25.2636C33.1637 26.5555 32.1344 27.6047 30.8672 27.6047C29.5957 27.6058 28.5643 26.5566 28.5643 25.2636ZM32.0448 25.2636C32.0448 24.6024 31.5179 24.0659 30.8661 24.067C30.2101 24.067 29.6843 24.6024 29.6843 25.2636C29.6843 25.9258 30.2101 26.4677 30.8661 26.4677C31.5179 26.4677 32.0448 25.9258 32.0448 25.2636Z" fill="#FDA704"/>
<path fill-rule="evenodd" clip-rule="evenodd" d="M28.4171 18.5795C29.1573 18.3021 29.9147 18.1677 30.6624 18.1471C28.6251 17.2193 26.3189 16.75 23.7643 16.75C21.2288 16.75 18.8896 17.2313 16.8533 18.1146C20.5387 18.1894 23.5349 21.1222 23.7931 24.8181C23.856 23.9695 24.0597 23.1306 24.4203 22.3361C25.2149 20.5803 26.6357 19.2472 28.4171 18.5795Z" fill="#FDA704"/>
</svg>
